:SAMPLES-PER-SECOND 30
:FULLY-SPECIFIED
:DEGREES
352
root  1.22088 30.4062 3.05112 -62.2158 -80.2353 69.5948
RightUpLeg  -36.3415 -26.722 -42.6372
RightLeg  55.9673 12.6837 19.0064
RightFoot  -13.2841 0.504074 34.1586
RightToes  -6.40286e-010 0 -3.6325e-017
Spine  28.0151 3.3709 22.7885
Spine1  -22.634 8.23848 0.275524
HEad  -8.28351 0.578366 -30.2237
LeftShoulder1  0.547105 0.170554 -8.99168
LeftArm  40.6698 29.818 -36.5391
LeftForeArm  40.0742 -13.6768 -11.7331
LeftHand  1.70513 10.736 35.5008
RightShoulder  -0.265333 -6.37372 0.841672
RightArm  -53.0948 -15.3283 -1.03803
RightForeArm  -49.5152 33.6324 9.55091
RightHand  -0.331275 -3.49153 -19.7802
LeftUpLeg  -37.2327 39.5634 22.6519
LeftLeg  54.3096 -12.0753 -16.9621
LeftFoot  2.13979 3.94059 -32.6226
LeftToes  -2.09187e-010 -4.93792e-011 -8.21189e-011
353
root  0.995593 30.8149 4.25799 -57.6816 -77.6741 63.5544
RightUpLeg  -29.4546 -21.9991 -47.8552
RightLeg  49.298 11.1648 13.3054
RightFoot  -11.2711 -0.101669 36.4864
RightToes  -6.40286e-010 0 -3.6325e-017
Spine  27.4686 4.29095 24.5929
Spine1  -22.2297 9.23167 -2.56605
HEad  -4.30214 -3.58998 -30.209
LeftShoulder1  0.269796 1.67421 -7.1282
LeftArm  37.6991 34.863 -37.1229
LeftForeArm  39.4485 -14.5034 -10.9496
LeftHand  1.63105 10.5069 35.4841
RightShoulder  -0.212801 -6.07614 -0.227979
RightArm  -56.356 -11.3551 -4.78925
RightForeArm  -49.293 28.2937 8.12266
RightHand  -0.20178 -4.31813 -20.908
LeftUpLeg  -37.5607 39.5426 18.984
LeftLeg  57.0442 -12.7105 -19.6669
LeftFoot  2.23592 3.71618 -30.6527
LeftToes  -2.09187e-010 -4.93792e-011 -8.21189e-011
354
root  0.766196 31.3172 5.50964 -51.0433 -74.6433 55.3744
RightUpLeg  -21.3828 -17.1681 -52.0944
RightLeg  41.3977 7.67112 6.95581
RightFoot  -8.18229 -1.16681 38.7022
RightToes  -6.40286e-010 0 -3.6325e-017
Spine  26.5793 5.32369 25.0485
Spine1  -22.2809 9.90205 -3.4417
HEad  -0.0735357 -8.01031 -30.2784
LeftShoulder1  0.0626148 3.01079 -4.70477
LeftArm  33.8483 39.9502 -39.2104
LeftForeArm  37.3355 -15.5218 -9.97896
LeftHand  1.73238 10.6915 36.2806
RightShoulder  -0.181596 -5.99709 -1.3216
RightArm  -56.4162 -8.25548 -8.13412
RightForeArm  -49.6315 23.8575 6.71101
RightHand  -0.131025 -4.74557 -22.0419
LeftUpLeg  -37.6488 38.3924 14.9523
LeftLeg  58.6732 -12.777 -21.0023
LeftFoot  1.87364 3.24777 -27.6227
LeftToes  -2.09187e-010 -4.93792e-011 -8.21189e-011
355
root  0.555088 31.8162 6.79863 -44.8806 -71.5247 47.1541
RightUpLeg  -12.5781 -12.8449 -54.8894
RightLeg  33.3525 1.90624 1.12708
RightFoot  -3.27151 -2.99502 40.4334
RightToes  -6.40286e-010 0 -3.6325e-017
Spine  25.9226 6.56003 24.9859
Spine1  -22.671 10.6781 -3.43667
HEad  4.31682 -13.5851 -30.058
LeftShoulder1  -0.0975674 4.52637 -1.41297
LeftArm  30.8021 44.2344 -43.0318
LeftForeArm  31.1532 -17.7479 -7.93413
LeftHand  1.94327 11.1348 37.4462
RightShoulder  -0.16947 -6.20208 -2.45879
RightArm  -53.3445 -7.5167 -10.5312
RightForeArm  -52.416 21.1901 4.59944
RightHand  -0.156714 -4.62033 -22.4584
LeftUpLeg  -36.4481 36.6056 11.9731
LeftLeg  59.7102 -12.8201 -21.9124
LeftFoot  0.384755 2.56574 -24.6531
LeftToes  -2.09187e-010 -4.93792e-011 -8.21189e-011
356
root  0.391811 32.2217 8.02995 -40.2863 -69.0671 40.3127
RightUpLeg  -4.7184 -9.07813 -55.9747
RightLeg  26.515 -5.40667 -3.15409
RightFoot  3.22277 -5.45006 41.1167
RightToes  -6.40286e-010 0 -3.6325e-017
Spine  25.9528 7.98342 25.3264
Spine1  -23.3461 11.8897 -4.23661
HEad  8.35377 -20.3036 -29.7781
LeftShoulder1  -0.190382 6.41544 2.17195
LeftArm  27.5958 47.3794 -47.3245
LeftForeArm  22.306 -21.8582 -4.9701
LeftHand  2.02953 11.2145 38.4643
RightShoulder  -0.164826 -6.37176 -3.07358
RightArm  -53.5199 -10.0986 -12.3007
RightForeArm  -51.4059 20.8983 4.10127
RightHand  -0.212773 -4.32259 -22.2925
LeftUpLeg  -34.2425 34.7376 10.7739
LeftLeg  60.618 -13.1066 -23.1462
LeftFoot  -1.98029 1.89565 -22.7547
LeftToes  -2.09187e-010 -4.93792e-011 -8.21189e-011
357
root  0.277101 32.4858 9.1239 -35.9788 -67.3492 34.1562
RightUpLeg  1.39342 -5.82624 -55.6769
RightLeg  21.4441 -12.5456 -5.59472
RightFoot  9.91377 -7.74789 40.1295
RightToes  -6.40286e-010 0 -3.6325e-017
Spine  26.3395 9.22071 26.3656
Spine1  -24.1357 13.1488 -6.64852
HEad  11.5518 -26.8562 -29.3255
LeftShoulder1  -0.191282 8.29842 5.14185
LeftArm  18.2129 49.6185 -50.3873
LeftForeArm  18.6028 -27.2243 -4.7087
LeftHand  1.96584 10.9366 39.0503
RightShoulder  -0.160467 -6.18927 -2.81018
RightArm  -56.1166 -15.1887 -13.7232
RightForeArm  -44.041 22.4237 5.59118
RightHand  -0.318941 -3.79682 -22.653
LeftUpLeg  -32.4198 32.6121 10.7213
LeftLeg  61.6685 -13.2745 -24.3825
LeftFoot  -4.69639 1.30152 -21.6931
LeftToes  -2.09187e-010 -4.93792e-011 -8.21189e-011
358
root  0.202243 32.5718 10.0471 -31.3709 -66.0731 28.2864
RightUpLeg  5.71438 -3.31773 -54.6042
RightLeg  18.1891 -17.5556 -6.53126
RightFoot  15.222 -8.98401 37.3036
RightToes  -6.40286e-010 0 -3.6325e-017
Spine  26.4329 9.80777 27.6415
Spine1  -24.2652 13.8332 -10.2724
HEad  13.2683 -31.9353 -27.7414
LeftShoulder1  -0.152424 9.73104 6.89564
LeftArm  8.30212 51.2385 -52.3373
LeftForeArm  14.2834 -33.1682 -6.54134
LeftHand  1.88313 10.6988 39.0789
RightShoulder  -0.14308 -5.49407 -1.38134
RightArm  -52.8217 -20.2358 -14.9214
RightForeArm  -35.496 23.4815 6.42832
RightHand  -0.569947 -2.67865 -24.0092
LeftUpLeg  -31.4596 30.0727 11.1728
LeftLeg  62.8432 -13.1005 -25.2434
LeftFoot  -8.34917 0.611896 -21.3493
LeftToes  -2.09187e-010 -4.93792e-011 -8.21189e-011
359
root  0.184924 32.4896 10.7435 -27.2133 -65.5469 23.4952
RightUpLeg  7.58915 -2.50983 -53.4733
RightLeg  17.0849 -19.0357 -6.61971
RightFoot  18.2294 -8.92813 33.439
RightToes  -6.40286e-010 0 -3.6325e-017
Spine  26.1365 9.68083 28.5101
Spine1  -23.0415 13.8974 -14.4438
HEad  13.0193 -35.1697 -24.4912
LeftShoulder1  -0.159617 10.6881 7.15082
LeftArm  1.15556 51.8304 -53.9122
LeftForeArm  4.36368 -37.9338 -8.46391
LeftHand  1.70606 10.3388 38.077
RightShoulder  -0.0743222 -4.28501 1.43865
RightArm  -42.7867 -23.1809 -15.8752
RightForeArm  -28.0623 23.1024 6.06973
RightHand  -0.962096 -1.17738 -26.1789
LeftUpLeg  -30.83 27.6357 12.1162
LeftLeg  63.7536 -13.0136 -26.0338
LeftFoot  -13.6671 -0.388363 -22.4312
LeftToes  -2.09187e-010 -4.93792e-011 -8.21189e-011
360
root  0.246223 32.29 11.1434 -23.8014 -66.2833 20.3856
RightUpLeg  6.20088 -3.91205 -52.6889
RightLeg  18.4662 -17.5376 -6.5883
RightFoot  19.0147 -8.28642 30.3942
RightToes  -6.40286e-010 0 -3.6325e-017
Spine  25.794 9.2055 28.4379
Spine1  -20.9323 13.7256 -18.7228
HEad  11.0868 -36.808 -20.307
LeftShoulder1  -0.26622 11.0678 5.6726
LeftArm  -4.93153 50.9087 -55.2874
LeftForeArm  -9.45837 -40.5135 -10.1224
LeftHand  1.35386 9.61902 35.595
RightShoulder  0.0838141 -2.84403 5.02174
RightArm  -30.6336 -24.4323 -15.7914
RightForeArm  -21.1952 24.1268 6.14694
RightHand  -1.3806 0.0960201 -28.8368
LeftUpLeg  -30.7123 25.9949 13.3611
LeftLeg  64.2349 -13.1568 -26.8015
LeftFoot  -19.6596 -1.70576 -24.6897
LeftToes  -2.09187e-010 -4.93792e-011 -8.21189e-011
361
root  0.365233 32.0162 11.2259 -20.7357 -67.9097 18.5708
RightUpLeg  2.25172 -6.3983 -51.9913
RightLeg  21.8217 -15.0599 -6.7299
RightFoot  18.355 -7.92047 29.7729
RightToes  -6.40286e-010 0 -3.6325e-017
Spine  25.4752 8.6962 26.9464
Spine1  -18.8107 13.4272 -22.4995
HEad  7.74441 -37.2402 -15.7863
LeftShoulder1  -0.445039 10.3378 2.19107
LeftArm  -10.6616 48.0769 -56.0377
LeftForeArm  -23.3209 -41.1147 -11.0796
LeftHand  0.956276 8.69781 32.4417
RightShoulder  0.27467 -1.71539 8.05211
RightArm  -21.2328 -25.9178 -13.7846
RightForeArm  -11.0981 29.2251 6.9332
RightHand  -1.67205 0.618022 -31.7628
LeftUpLeg  -31.8993 25.1986 14.3864
LeftLeg  64.6858 -12.8037 -26.6551
LeftFoot  -24.1649 -2.87335 -26.4653
LeftToes  -2.09187e-010 -4.93792e-011 -8.21189e-011
